<svg xmlns="http://www.w3.org/2000/svg" viewBox="0 0 520.72 531.13"><defs><style>.cls-1{fill:#f4df89;}.cls-2{fill:#f0c052;}</style></defs><g id="Layer_2" data-name="Layer 2"><g id="Layer_1-2" data-name="Layer 1"><path class="cls-1" d="M327.54,10.4v25H495.72V506.13H25V35.4H193.61v-25H0V531.13H520.72V10.4Z"/><path class="cls-2" d="M327.54,87.16q0,3.7-10.27,3.7-18.58,0-23,1.22t-5.14,4.16q-.73,2.94-.73,19.1V318.07q.48,33.78,0,55.33-1,30.36-4.39,45.54-5.85,25.47-28.74,43.83t-48.71,18.36q-19,0-30.69-10T164.2,444.94q0-27.87,27.38-27.88,11.25,0,18.83,6.85A22.65,22.65,0,0,1,218,441.52a24.75,24.75,0,0,1-6.35,16.63q-4.41,5.37-4.41,8.31,0,4.4,7.34,4.4,15.65,0,22-19.07,3.4-10.28,3.42-60.16V112.38q0-15.64-9.29-19.57-4.41-1.45-23.48-1.46c-5.87,0-9.53-.32-11-1a3.14,3.14,0,0,1-2.2-2.94c0-3.25,2.6-4.89,7.82-4.89h110Q327.53,82.54,327.54,87.16Z"/><path class="cls-2" d="M283.07,10.3a5.5,5.5,0,0,1-1.4,3.9,4.69,4.69,0,0,1-3.6,1.5q-5.29,0-5.3-4.7a8.07,8.07,0,0,1,.65-2.85,7.69,7.69,0,0,0,.65-2.35,4.27,4.27,0,0,0-1.45-3.25,5,5,0,0,0-3.55-1.35q-9.1,0-9.1,20.3,0,11.6,4,16.6a9.48,9.48,0,0,0,7.6,3.8q4.69,0,9.6-6.1c.4-.53.77-.8,1.1-.8s.4.2.4.6c0,1.27-1.2,3-3.6,5.3a17.57,17.57,0,0,1-12.5,4.9,20.74,20.74,0,0,1-15.35-6.45,21.5,21.5,0,0,1-6.35-15.65,23.16,23.16,0,0,1,6.7-16.85A22.17,22.17,0,0,1,268.07,0a18.3,18.3,0,0,1,10.65,3Q283.07,6,283.07,10.3Z"/></g></g></svg>